<svg width="256" height="256" viewBox="0 0 256 256" fill="none" xmlns="http://www.w3.org/2000/svg">
  <rect width="256" height="256" rx="56" fill="#0c0a09"/>
  <g transform="translate(39,39)">
    <path fill="#fd660d" d="m178.03,88.93c0,23.31-9.07,44.59-23.87,60.49l-21.09-21.09c9.34-10.41,14.99-24.2,14.99-39.4,0-32.73-26.22-58.95-58.95-58.95s-58.95,26.22-58.95,58.95,26.22,58.95,58.95,58.95c3.16,0,6.25-.24,9.27-.72l24.14,24.14c-10.32,4.23-21.61,6.55-33.41,6.55C40,177.85,0,137.86,0,88.92S40,0,88.92,0s89.11,40.01,89.11,88.93Z"/>
    <polygon fill="#f5f5f4" points="178.21 178.52 136.25 178.82 85.56 128.84 127.52 128.54 178.21 178.52"/>
  </g>
</svg>